<svg xmlns="http://www.w3.org/2000/svg" width="256" height="256" fill="none" viewBox="0 0 256 256"><rect width="256" height="256" fill="#F4F2ED" rx="60"/><path fill="#E535AB" d="M47.8621 176.192L55.2041 180.431L136.997 38.7664L129.655 34.5274L47.8621 176.192Z"/><path fill="#E535AB" d="M209.766 164.875H46.1809V173.353H209.766V164.875Z"/><path fill="#E535AB" d="M49.4179 169.637 131.241 216.879 135.48 209.537 53.6569 162.295 49.4179 169.637ZM120.498 46.5121 202.321 93.7542 206.56 86.4122 124.737 39.1701 120.498 46.5121Z"/><path fill="#E535AB" d="M49.4404 86.3797L53.6794 93.7217L135.503 46.4796L131.264 39.1376L49.4404 86.3797Z"/><path fill="#E535AB" d="M119.019 38.7675 200.812 180.432 208.154 176.193 126.361 34.5285 119.019 38.7675ZM61.145 80.7577H52.667V175.242H61.145V80.7577Z"/><path fill="#E535AB" d="M203.331 80.7577H194.853V175.242H203.331V80.7577Z"/><path fill="#E535AB" d="M126.095 206.877L129.798 213.291L200.962 172.203L197.259 165.79L126.095 206.877Z"/><path fill="#E535AB" d="M214.567 178C209.664 186.529 198.734 189.44 190.205 184.537 181.676 179.634 178.765 168.705 183.668 160.176 188.571 151.646 199.501 148.735 208.03 153.638 216.61 158.592 219.521 169.471 214.567 178ZM72.2789 95.8244C67.3759 104.353 56.4464 107.265 47.9173 102.362 39.3882 97.4587 36.4771 86.5292 41.38 78.0001 46.283 69.4709 57.2125 66.5598 65.7416 71.4628 74.2707 76.4168 77.1819 87.2953 72.2789 95.8244ZM41.431 178C36.5281 169.471 39.4392 158.592 47.9683 153.638 56.4974 148.735 67.3759 151.646 72.3299 160.176 77.2329 168.705 74.3217 179.583 65.7926 184.537 57.2124 189.44 46.334 186.529 41.431 178ZM183.719 95.8244C178.816 87.2953 181.727 76.4168 190.256 71.4628 198.785 66.5598 209.664 69.4709 214.618 78.0001 219.521 86.5292 216.61 97.4076 208.08 102.362 199.551 107.265 188.622 104.353 183.719 95.8244ZM127.999 228C118.142 228 110.175 220.033 110.175 210.176 110.175 200.319 118.142 192.351 127.999 192.351 137.856 192.351 145.823 200.319 145.823 210.176 145.823 219.982 137.856 228 127.999 228ZM127.999 63.6486C118.142 63.6486 110.175 55.6813 110.175 45.8243 110.175 35.9673 118.142 28 127.999 28 137.856 28 145.823 35.9673 145.823 45.8243 145.823 55.6813 137.856 63.6486 127.999 63.6486Z"/></svg>